<svg width="12" height="13" viewBox="0 0 12 13" fill="none" xmlns="http://www.w3.org/2000/svg">
<path opacity="0.5" fill-rule="evenodd" clip-rule="evenodd" d="M8.23183 4.33501C7.69785 3.77276 6.95635 3.42349 6.13573 3.42349C5.31512 3.42349 4.57354 3.77276 4.04006 4.33501H0.394531V2.78481C0.394531 1.98931 0.774209 1.28631 1.35517 0.85887V3.40031H1.82139V0.594554C1.92702 0.550638 2.03685 0.514499 2.14974 0.48731V3.40031H2.61588V0.425898C2.62376 0.425814 2.63154 0.42559 2.63931 0.425366C2.64905 0.425085 2.65877 0.424805 2.66861 0.424805H2.93789V3.40031H3.40411V0.424805H9.61812C10.8738 0.424805 11.8922 1.48148 11.8922 2.78481H11.8919V4.33501H8.23183ZM9.25872 1.41152C9.05703 1.41152 8.89372 1.58108 8.89372 1.79009V3.09432C8.89372 3.30333 9.05703 3.47289 9.25872 3.47289H10.4878C10.6894 3.47289 10.8527 3.30333 10.8527 3.09432V1.79009C10.8527 1.58108 10.6894 1.41152 10.4878 1.41152H9.25872ZM7.07059 4.33501C7.27437 4.43133 7.46194 4.55783 7.62825 4.70885C8.10223 5.14062 8.40231 5.77306 8.40231 6.47715C8.40231 7.77453 7.38559 8.82963 6.13573 8.82963C4.88612 8.82963 3.86941 7.77453 3.86941 6.47715C3.86941 5.77306 4.16948 5.14062 4.64346 4.70885C4.80951 4.55783 4.99727 4.43133 5.20088 4.33501C5.48619 4.20054 5.8027 4.12478 6.13573 4.12478C6.46902 4.12478 6.78553 4.20054 7.07059 4.33501ZM4.46813 6.47715C4.46813 7.43737 5.21799 8.2157 6.14316 8.2157C7.06833 8.2157 7.81826 7.43737 7.81826 6.47715C7.81826 5.51714 7.06833 4.73889 6.14316 4.73889C5.21799 4.73889 4.46813 5.51714 4.46813 6.47715ZM9.61812 12.4205H2.66861C1.41291 12.4205 0.394531 11.3641 0.394531 10.0605V4.70885H3.73824C3.39576 5.20795 3.19391 5.81783 3.19391 6.47715C3.19391 8.16353 4.51111 9.53092 6.13573 9.53092C7.76053 9.53092 9.07789 8.16353 9.07789 6.47715C9.07789 5.81783 8.87571 5.20795 8.53348 4.70885H11.8922V10.0605C11.8922 11.3641 10.8741 12.4205 9.61812 12.4205Z" fill="black"/>
</svg>
