<svg width="7" height="17" viewBox="0 0 7 17" fill="none" xmlns="http://www.w3.org/2000/svg">
<g opacity="0.3">
<path fill-rule="evenodd" clip-rule="evenodd" d="M3.73066 7C4.75204 7 5.58002 7.78349 5.58002 8.75C5.58002 9.7165 4.75204 10.5 3.73066 10.5C2.7093 10.5 1.88122 9.7165 1.88122 8.75C1.88122 7.78349 2.7093 7 3.73066 7Z" fill="black"/>
<path fill-rule="evenodd" clip-rule="evenodd" d="M3.73058 1.00001C4.75196 1.00001 5.57994 1.7835 5.57994 2.75C5.57994 3.7165 4.75196 4.5 3.73058 4.5C2.70922 4.5 1.88115 3.7165 1.88115 2.75C1.88115 1.7835 2.70922 1.00001 3.73058 1.00001Z" fill="black"/>
<path fill-rule="evenodd" clip-rule="evenodd" d="M3.73058 13C4.75196 13 5.57994 13.7835 5.57994 14.75C5.57994 15.7165 4.75196 16.5 3.73058 16.5C2.70922 16.5 1.88115 15.7165 1.88115 14.75C1.88115 13.7835 2.70922 13 3.73058 13Z" fill="black"/>
</g>
</svg>
