<svg width="15" height="14" viewBox="0 0 15 14" fill="none" xmlns="http://www.w3.org/2000/svg">
<path opacity="0.4" fill-rule="evenodd" clip-rule="evenodd" d="M10.0527 12.1334C9.82528 13.1983 8.83565 13.9999 7.64884 13.9999C6.46203 13.9999 5.4724 13.1983 5.24506 12.1334H0.779663L2.74225 8.39998V4.66659C2.74225 2.08932 4.93905 -3.05176e-05 7.64884 -3.05176e-05C10.3587 -3.05176e-05 12.5554 2.08932 12.5554 4.66659V8.39998L14.518 12.1334H10.0527ZM7.64884 13.0667C8.28881 13.0667 8.82788 12.6759 9.03072 12.1334H6.26705C6.4698 12.6759 7.00887 13.0667 7.64884 13.0667ZM11.5741 8.39998V4.66659C11.5741 2.60488 9.81671 0.933333 7.64884 0.933333C5.48095 0.933333 3.72358 2.60488 3.72358 4.66659V8.39998L2.25158 11.2H13.046L11.5741 8.39998Z" fill="black"/>
</svg>
