<svg width="11" height="14" viewBox="0 0 11 14" fill="none" xmlns="http://www.w3.org/2000/svg">
<path opacity="0.4" fill-rule="evenodd" clip-rule="evenodd" d="M7.7696 13.5H3.20614C1.69401 13.5 0.46814 12.4087 0.46814 11.0625V9.43749C0.46814 8.37038 1.24338 7.47321 2.31599 7.14305C1.73175 6.44133 1.38077 5.54249 1.38077 4.56255C1.38077 2.31884 3.21963 0.499939 5.48796 0.499939C7.75619 0.499939 9.59496 2.31884 9.59496 4.56255C9.59496 5.54249 9.24398 6.44133 8.65984 7.14305C9.73245 7.47321 10.5077 8.37038 10.5077 9.43749V11.0625C10.5077 12.4087 9.28181 13.5 7.7696 13.5ZM8.68232 4.56255C8.68232 2.76755 7.2522 1.31247 5.48796 1.31247C3.72371 1.31247 2.29358 2.76755 2.29358 4.56255C2.29358 6.35741 3.72371 7.81248 5.48796 7.81248C7.2522 7.81248 8.68232 6.35741 8.68232 4.56255ZM9.59496 9.64067C9.59496 8.77707 8.85878 8.05752 7.87198 7.86621C7.19939 8.34206 6.37793 8.62496 5.48796 8.62496C4.59798 8.62496 3.77644 8.34206 3.10384 7.86621C2.11713 8.05752 1.38077 8.77707 1.38077 9.64067V10.8594C1.38077 11.869 2.3838 12.6876 3.62106 12.6876H7.35477C8.5921 12.6876 9.59496 11.869 9.59496 10.8594V9.64067Z" fill="black"/>
</svg>
