<svg width="14" height="20" viewBox="0 0 14 20" fill="none" xmlns="http://www.w3.org/2000/svg">
<path opacity="0.4" fill-rule="evenodd" clip-rule="evenodd" d="M0.891675 3.7498C0.891675 1.67874 3.02084 -0.000256121 5.64719 -0.000256121C8.27365 -0.000256121 10.4027 1.67874 10.4027 3.7498V14.9998C10.4027 16.3806 8.98328 17.4997 7.23235 17.4997C5.48141 17.4997 4.06197 16.3806 4.06197 14.9998V4.99982H5.64719V14.9998C5.64719 15.6901 6.35684 16.2498 7.23235 16.2498C8.10786 16.2498 8.81759 15.6901 8.81759 14.9998V3.7498C8.81759 2.36906 7.39814 1.24978 5.64719 1.24978C3.89617 1.24978 2.47673 2.36906 2.47673 3.7498V14.9998C2.47673 17.0709 4.6059 18.7499 7.23235 18.7499C9.85879 18.7499 11.988 17.0709 11.988 14.9998V2.4998H13.5731V15.6248C13.1824 18.0905 10.4653 19.9999 7.23235 19.9999C3.99952 19.9999 1.28243 18.0905 0.89149 15.6248L0.891675 3.7498Z" fill="black"/>
</svg>
