<svg width="134" height="25" viewBox="0 0 134 25" fill="none" xmlns="http://www.w3.org/2000/svg">
<path fill-rule="evenodd" clip-rule="evenodd" d="M4.99998 0.5H129C131.209 0.5 133 2.29085 133 4.5V20.5C133 22.7091 131.209 24.5 129 24.5H4.99998C2.79095 24.5 0.999915 22.7091 0.999915 20.5V4.5C0.999915 2.29085 2.79095 0.5 4.99998 0.5Z" fill="#3577EF"/>
<path d="M47.2393 13.6C47.313 13.7387 47.3801 13.8838 47.4408 14.0355C47.5058 14.1828 47.5686 14.3323 47.6293 14.484C47.69 14.328 47.7528 14.1742 47.8178 14.0225C47.8828 13.8708 47.9521 13.7257 48.0258 13.587L50.8078 8.3805C50.8425 8.3155 50.8771 8.2635 50.9118 8.2245C50.9508 8.1855 50.992 8.15733 51.0353 8.14C51.083 8.12267 51.135 8.11183 51.1913 8.1075C51.2476 8.10317 51.3148 8.101 51.3928 8.101H52.7123V17.5H51.1718V11.429C51.1718 11.3163 51.174 11.1928 51.1783 11.0585C51.187 10.9242 51.1978 10.7877 51.2108 10.649L48.3703 15.979C48.3053 16.1003 48.2208 16.1957 48.1168 16.265C48.0128 16.33 47.8915 16.3625 47.7528 16.3625H47.5123C47.3736 16.3625 47.2523 16.33 47.1483 16.265C47.0443 16.1957 46.9598 16.1003 46.8948 15.979L44.0153 10.6295C44.0326 10.7725 44.0435 10.9133 44.0478 11.052C44.0565 11.1863 44.0608 11.312 44.0608 11.429V17.5H42.5203V8.101H43.8398C43.9178 8.101 43.985 8.10317 44.0413 8.1075C44.0976 8.11183 44.1475 8.12267 44.1908 8.14C44.2385 8.15733 44.2818 8.1855 44.3208 8.2245C44.3598 8.2635 44.3966 8.3155 44.4313 8.3805L47.2393 13.6ZM57.2712 10.727C57.6916 10.727 58.0772 10.7942 58.4282 10.9285C58.7836 11.0628 59.0891 11.26 59.3447 11.52C59.6004 11.7757 59.7997 12.092 59.9427 12.469C60.0857 12.8417 60.1572 13.2685 60.1572 13.7495C60.1572 13.8708 60.1507 13.9727 60.1377 14.055C60.1291 14.133 60.1096 14.1958 60.0792 14.2435C60.0532 14.2868 60.0164 14.3193 59.9687 14.341C59.9211 14.3583 59.8604 14.367 59.7867 14.367H55.6657C55.7134 15.0517 55.8976 15.5543 56.2182 15.875C56.5389 16.1957 56.9636 16.356 57.4922 16.356C57.7522 16.356 57.9754 16.3257 58.1617 16.265C58.3524 16.2043 58.5171 16.1372 58.6557 16.0635C58.7987 15.9898 58.9222 15.9227 59.0262 15.862C59.1346 15.8013 59.2386 15.771 59.3382 15.771C59.4032 15.771 59.4596 15.784 59.5072 15.81C59.5549 15.836 59.5961 15.8728 59.6307 15.9205L60.0987 16.5055C59.9211 16.7135 59.7217 16.889 59.5007 17.032C59.2797 17.1707 59.0479 17.2833 58.8052 17.37C58.5669 17.4523 58.3221 17.5108 58.0707 17.5455C57.8237 17.5802 57.5832 17.5975 57.3492 17.5975C56.8856 17.5975 56.4544 17.5217 56.0557 17.37C55.6571 17.214 55.3104 16.9865 55.0157 16.6875C54.7211 16.3842 54.4892 16.0115 54.3202 15.5695C54.1512 15.1232 54.0667 14.6075 54.0667 14.0225C54.0667 13.5675 54.1404 13.1407 54.2877 12.742C54.4351 12.339 54.6452 11.9902 54.9182 11.6955C55.1956 11.3965 55.5314 11.1603 55.9257 10.987C56.3244 10.8137 56.7729 10.727 57.2712 10.727ZM57.3037 11.8775C56.8357 11.8775 56.4696 12.0097 56.2052 12.274C55.9409 12.5383 55.7719 12.9132 55.6982 13.3985H58.7142C58.7142 13.1905 58.6861 12.9955 58.6297 12.8135C58.5734 12.6272 58.4867 12.4647 58.3697 12.326C58.2527 12.1873 58.1054 12.079 57.9277 12.001C57.7501 11.9187 57.5421 11.8775 57.3037 11.8775ZM65.4181 12.131C65.3747 12.2003 65.3292 12.2502 65.2816 12.2805C65.2339 12.3065 65.1732 12.3195 65.0996 12.3195C65.0216 12.3195 64.9371 12.2978 64.8461 12.2545C64.7594 12.2112 64.6576 12.1635 64.5406 12.1115C64.4236 12.0552 64.2892 12.0053 64.1376 11.962C63.9902 11.9187 63.8147 11.897 63.6111 11.897C63.2947 11.897 63.0456 11.9642 62.8636 12.0985C62.6816 12.2328 62.5906 12.4083 62.5906 12.625C62.5906 12.768 62.6361 12.8893 62.7271 12.989C62.8224 13.0843 62.9459 13.1688 63.0976 13.2425C63.2536 13.3162 63.4291 13.3833 63.6241 13.444C63.8191 13.5003 64.0184 13.5632 64.2221 13.6325C64.4257 13.7018 64.6251 13.782 64.8201 13.873C65.0151 13.9597 65.1884 14.0723 65.3401 14.211C65.4961 14.3453 65.6196 14.5078 65.7106 14.6985C65.8059 14.8892 65.8536 15.1188 65.8536 15.3875C65.8536 15.7082 65.7951 16.005 65.6781 16.278C65.5611 16.5467 65.3899 16.7807 65.1646 16.98C64.9392 17.175 64.6597 17.3288 64.3261 17.4415C63.9967 17.5498 63.6176 17.604 63.1886 17.604C62.9589 17.604 62.7336 17.5823 62.5126 17.539C62.2959 17.5 62.0857 17.4437 61.8821 17.37C61.6827 17.2963 61.4964 17.2097 61.3231 17.11C61.1541 17.0103 61.0046 16.902 60.8746 16.785L61.2451 16.174C61.2927 16.1003 61.3491 16.044 61.4141 16.005C61.4791 15.966 61.5614 15.9465 61.6611 15.9465C61.7607 15.9465 61.8539 15.9747 61.9406 16.031C62.0316 16.0873 62.1356 16.148 62.2526 16.213C62.3696 16.278 62.5061 16.3387 62.6621 16.395C62.8224 16.4513 63.0239 16.4795 63.2666 16.4795C63.4572 16.4795 63.6197 16.4578 63.7541 16.4145C63.8927 16.3668 64.0054 16.3062 64.0921 16.2325C64.1831 16.1588 64.2481 16.0743 64.2871 15.979C64.3304 15.8793 64.3521 15.7775 64.3521 15.6735C64.3521 15.5175 64.3044 15.3897 64.2091 15.29C64.1181 15.1903 63.9946 15.1037 63.8386 15.03C63.6869 14.9563 63.5114 14.8913 63.3121 14.835C63.1171 14.7743 62.9156 14.7093 62.7076 14.64C62.5039 14.5707 62.3024 14.4905 62.1031 14.3995C61.9081 14.3042 61.7326 14.185 61.5766 14.042C61.4249 13.899 61.3014 13.7235 61.2061 13.5155C61.1151 13.3075 61.0696 13.0562 61.0696 12.7615C61.0696 12.4885 61.1237 12.2285 61.2321 11.9815C61.3404 11.7345 61.4986 11.52 61.7066 11.338C61.9189 11.1517 62.1811 11.0043 62.4931 10.896C62.8094 10.7833 63.1734 10.727 63.5851 10.727C64.0444 10.727 64.4626 10.8028 64.8396 10.9545C65.2166 11.1062 65.5307 11.3055 65.7821 11.5525L65.4181 12.131ZM71.0929 12.131C71.0495 12.2003 71.004 12.2502 70.9564 12.2805C70.9087 12.3065 70.848 12.3195 70.7744 12.3195C70.6964 12.3195 70.6119 12.2978 70.5209 12.2545C70.4342 12.2112 70.3324 12.1635 70.2154 12.1115C70.0984 12.0552 69.964 12.0053 69.8124 11.962C69.665 11.9187 69.4895 11.897 69.2859 11.897C68.9695 11.897 68.7204 11.9642 68.5384 12.0985C68.3564 12.2328 68.2654 12.4083 68.2654 12.625C68.2654 12.768 68.3109 12.8893 68.4019 12.989C68.4972 13.0843 68.6207 13.1688 68.7724 13.2425C68.9284 13.3162 69.1039 13.3833 69.2989 13.444C69.4939 13.5003 69.6932 13.5632 69.8969 13.6325C70.1005 13.7018 70.2999 13.782 70.4949 13.873C70.6899 13.9597 70.8632 14.0723 71.0149 14.211C71.1709 14.3453 71.2944 14.5078 71.3854 14.6985C71.4807 14.8892 71.5284 15.1188 71.5284 15.3875C71.5284 15.7082 71.4699 16.005 71.3529 16.278C71.2359 16.5467 71.0647 16.7807 70.8394 16.98C70.614 17.175 70.3345 17.3288 70.0009 17.4415C69.6715 17.5498 69.2924 17.604 68.8634 17.604C68.6337 17.604 68.4084 17.5823 68.1874 17.539C67.9707 17.5 67.7605 17.4437 67.5569 17.37C67.3575 17.2963 67.1712 17.2097 66.9979 17.11C66.8289 17.0103 66.6794 16.902 66.5494 16.785L66.9199 16.174C66.9675 16.1003 67.0239 16.044 67.0889 16.005C67.1539 15.966 67.2362 15.9465 67.3359 15.9465C67.4355 15.9465 67.5287 15.9747 67.6154 16.031C67.7064 16.0873 67.8104 16.148 67.9274 16.213C68.0444 16.278 68.1809 16.3387 68.3369 16.395C68.4972 16.4513 68.6987 16.4795 68.9414 16.4795C69.132 16.4795 69.2945 16.4578 69.4289 16.4145C69.5675 16.3668 69.6802 16.3062 69.7669 16.2325C69.8579 16.1588 69.9229 16.0743 69.9619 15.979C70.0052 15.8793 70.0269 15.7775 70.0269 15.6735C70.0269 15.5175 69.9792 15.3897 69.8839 15.29C69.7929 15.1903 69.6694 15.1037 69.5134 15.03C69.3617 14.9563 69.1862 14.8913 68.9869 14.835C68.7919 14.7743 68.5904 14.7093 68.3824 14.64C68.1787 14.5707 67.9772 14.4905 67.7779 14.3995C67.5829 14.3042 67.4074 14.185 67.2514 14.042C67.0997 13.899 66.9762 13.7235 66.8809 13.5155C66.7899 13.3075 66.7444 13.0562 66.7444 12.7615C66.7444 12.4885 66.7985 12.2285 66.9069 11.9815C67.0152 11.7345 67.1734 11.52 67.3814 11.338C67.5937 11.1517 67.8559 11.0043 68.1679 10.896C68.4842 10.7833 68.8482 10.727 69.2599 10.727C69.7192 10.727 70.1374 10.8028 70.5144 10.9545C70.8914 11.1062 71.2055 11.3055 71.4569 11.5525L71.0929 12.131ZM78.0352 17.5H77.3137C77.162 17.5 77.0428 17.4783 76.9562 17.435C76.8695 17.3873 76.8045 17.2942 76.7612 17.1555L76.6182 16.681C76.4492 16.8327 76.2823 16.967 76.1177 17.084C75.9573 17.1967 75.7905 17.292 75.6172 17.37C75.4438 17.448 75.2597 17.5065 75.0647 17.5455C74.8697 17.5845 74.653 17.604 74.4147 17.604C74.133 17.604 73.873 17.5672 73.6347 17.4935C73.3963 17.4155 73.1905 17.3007 73.0172 17.149C72.8482 16.9973 72.716 16.8088 72.6207 16.5835C72.5253 16.3582 72.4777 16.096 72.4777 15.797C72.4777 15.5457 72.5427 15.2987 72.6727 15.056C72.807 14.809 73.028 14.588 73.3357 14.393C73.6433 14.1937 74.0528 14.029 74.5642 13.899C75.0755 13.769 75.7103 13.6953 76.4687 13.678V13.288C76.4687 12.8417 76.3733 12.5123 76.1827 12.3C75.9963 12.0833 75.7233 11.975 75.3637 11.975C75.1037 11.975 74.887 12.0053 74.7137 12.066C74.5403 12.1267 74.3887 12.196 74.2587 12.274C74.133 12.3477 74.016 12.4148 73.9077 12.4755C73.7993 12.5362 73.6802 12.5665 73.5502 12.5665C73.4418 12.5665 73.3487 12.5383 73.2707 12.482C73.1927 12.4257 73.1298 12.3563 73.0822 12.274L72.7897 11.7605C73.5567 11.0585 74.4818 10.7075 75.5652 10.7075C75.9552 10.7075 76.3018 10.7725 76.6052 10.9025C76.9128 11.0282 77.1728 11.2058 77.3852 11.4355C77.5975 11.6608 77.7578 11.9317 77.8662 12.248C77.9788 12.5643 78.0352 12.911 78.0352 13.288V17.5ZM74.9152 16.499C75.0798 16.499 75.2315 16.4838 75.3702 16.4535C75.5088 16.4232 75.6388 16.3777 75.7602 16.317C75.8858 16.2563 76.005 16.1827 76.1177 16.096C76.2347 16.005 76.3517 15.8988 76.4687 15.7775V14.653C76.0007 14.6747 75.6085 14.7158 75.2922 14.7765C74.9802 14.8328 74.7288 14.9065 74.5382 14.9975C74.3475 15.0885 74.211 15.1947 74.1287 15.316C74.0507 15.4373 74.0117 15.5695 74.0117 15.7125C74.0117 15.9942 74.094 16.1957 74.2587 16.317C74.4277 16.4383 74.6465 16.499 74.9152 16.499ZM81.9214 10.714C82.2074 10.714 82.476 10.7443 82.7274 10.805C82.9787 10.8613 83.2084 10.9458 83.4164 11.0585H85.3339V11.6565C85.3339 11.7562 85.3079 11.8342 85.2559 11.8905C85.2039 11.9468 85.115 11.9858 84.9894 12.0075L84.3914 12.118C84.4347 12.2307 84.4672 12.3498 84.4889 12.4755C84.5149 12.6012 84.5279 12.7333 84.5279 12.872C84.5279 13.2013 84.4607 13.5003 84.3264 13.769C84.1964 14.0333 84.0144 14.2587 83.7804 14.445C83.5507 14.6313 83.2755 14.7765 82.9549 14.8805C82.6385 14.9802 82.294 15.03 81.9214 15.03C81.67 15.03 81.4252 15.0062 81.1869 14.9585C80.9789 15.0842 80.8749 15.225 80.8749 15.381C80.8749 15.5153 80.9355 15.615 81.0569 15.68C81.1825 15.7407 81.345 15.784 81.5444 15.81C81.748 15.836 81.9777 15.8533 82.2334 15.862C82.489 15.8663 82.7512 15.8793 83.0199 15.901C83.2885 15.9227 83.5507 15.9617 83.8064 16.018C84.062 16.07 84.2895 16.1545 84.4889 16.2715C84.6925 16.3885 84.855 16.5488 84.9764 16.7525C85.102 16.9518 85.1649 17.2097 85.1649 17.526C85.1649 17.8207 85.0912 18.1067 84.9439 18.384C84.8009 18.6613 84.5907 18.9083 84.3134 19.125C84.0404 19.3417 83.7045 19.515 83.3059 19.645C82.9072 19.7793 82.4522 19.8465 81.9409 19.8465C81.4339 19.8465 80.994 19.7967 80.6214 19.697C80.2487 19.6017 79.9389 19.4717 79.6919 19.307C79.4492 19.1467 79.2672 18.9603 79.1459 18.748C79.0245 18.5357 78.9639 18.3147 78.9639 18.085C78.9639 17.773 79.0592 17.5108 79.2499 17.2985C79.4405 17.0862 79.7049 16.9172 80.0429 16.7915C79.8782 16.7005 79.746 16.5792 79.6464 16.4275C79.5467 16.2758 79.4969 16.0787 79.4969 15.836C79.4969 15.7363 79.5142 15.6345 79.5489 15.5305C79.5835 15.4222 79.6355 15.316 79.7049 15.212C79.7785 15.108 79.8695 15.0105 79.9779 14.9195C80.0862 14.8242 80.214 14.7397 80.3614 14.666C80.0234 14.484 79.7569 14.2413 79.5619 13.938C79.3712 13.6347 79.2759 13.2793 79.2759 12.872C79.2759 12.5427 79.3409 12.2458 79.4709 11.9815C79.6052 11.7128 79.7894 11.4853 80.0234 11.299C80.2617 11.1083 80.5412 10.9632 80.8619 10.8635C81.1869 10.7638 81.54 10.714 81.9214 10.714ZM83.6829 17.799C83.6829 17.669 83.6439 17.5628 83.5659 17.4805C83.4879 17.3982 83.3817 17.3353 83.2474 17.292C83.113 17.2443 82.9549 17.2097 82.7729 17.188C82.5952 17.1663 82.4045 17.1512 82.2009 17.1425C82.0015 17.1295 81.7935 17.1187 81.5769 17.11C81.3645 17.097 81.1587 17.0775 80.9594 17.0515C80.7774 17.1512 80.63 17.2703 80.5174 17.409C80.409 17.5433 80.3549 17.6993 80.3549 17.877C80.3549 17.994 80.383 18.1023 80.4394 18.202C80.5 18.306 80.5932 18.3948 80.7189 18.4685C80.8489 18.5422 81.0157 18.5985 81.2194 18.6375C81.423 18.6808 81.6722 18.7025 81.9669 18.7025C82.2659 18.7025 82.5237 18.6787 82.7404 18.631C82.957 18.5877 83.1347 18.5248 83.2734 18.4425C83.4164 18.3645 83.5204 18.2692 83.5854 18.1565C83.6504 18.0482 83.6829 17.929 83.6829 17.799ZM81.9214 14.003C82.1207 14.003 82.294 13.977 82.4414 13.925C82.5887 13.8687 82.71 13.7928 82.8054 13.6975C82.905 13.6022 82.9787 13.4873 83.0264 13.353C83.0784 13.2187 83.1044 13.0713 83.1044 12.911C83.1044 12.5817 83.0047 12.3217 82.8054 12.131C82.6104 11.936 82.3157 11.8385 81.9214 11.8385C81.527 11.8385 81.2302 11.936 81.0309 12.131C80.8359 12.3217 80.7384 12.5817 80.7384 12.911C80.7384 13.067 80.7622 13.2122 80.8099 13.3465C80.8619 13.4808 80.9355 13.5978 81.0309 13.6975C81.1305 13.7928 81.254 13.8687 81.4014 13.925C81.553 13.977 81.7264 14.003 81.9214 14.003ZM89.0984 10.727C89.5187 10.727 89.9044 10.7942 90.2554 10.9285C90.6107 11.0628 90.9162 11.26 91.1719 11.52C91.4275 11.7757 91.6269 12.092 91.7699 12.469C91.9129 12.8417 91.9844 13.2685 91.9844 13.7495C91.9844 13.8708 91.9779 13.9727 91.9649 14.055C91.9562 14.133 91.9367 14.1958 91.9064 14.2435C91.8804 14.2868 91.8435 14.3193 91.7959 14.341C91.7482 14.3583 91.6875 14.367 91.6139 14.367H87.4929C87.5405 15.0517 87.7247 15.5543 88.0454 15.875C88.366 16.1957 88.7907 16.356 89.3194 16.356C89.5794 16.356 89.8025 16.3257 89.9889 16.265C90.1795 16.2043 90.3442 16.1372 90.4829 16.0635C90.6259 15.9898 90.7494 15.9227 90.8534 15.862C90.9617 15.8013 91.0657 15.771 91.1654 15.771C91.2304 15.771 91.2867 15.784 91.3344 15.81C91.382 15.836 91.4232 15.8728 91.4579 15.9205L91.9259 16.5055C91.7482 16.7135 91.5489 16.889 91.3279 17.032C91.1069 17.1707 90.875 17.2833 90.6324 17.37C90.394 17.4523 90.1492 17.5108 89.8979 17.5455C89.6509 17.5802 89.4104 17.5975 89.1764 17.5975C88.7127 17.5975 88.2815 17.5217 87.8829 17.37C87.4842 17.214 87.1375 16.9865 86.8429 16.6875C86.5482 16.3842 86.3164 16.0115 86.1474 15.5695C85.9784 15.1232 85.8939 14.6075 85.8939 14.0225C85.8939 13.5675 85.9675 13.1407 86.1149 12.742C86.2622 12.339 86.4724 11.9902 86.7454 11.6955C87.0227 11.3965 87.3585 11.1603 87.7529 10.987C88.1515 10.8137 88.6 10.727 89.0984 10.727ZM89.1309 11.8775C88.6629 11.8775 88.2967 12.0097 88.0324 12.274C87.768 12.5383 87.599 12.9132 87.5254 13.3985H90.5414C90.5414 13.1905 90.5132 12.9955 90.4569 12.8135C90.4005 12.6272 90.3139 12.4647 90.1969 12.326C90.0799 12.1873 89.9325 12.079 89.7549 12.001C89.5772 11.9187 89.3692 11.8775 89.1309 11.8775Z" fill="white"/>
</svg>
