<svg width="12" height="12" viewBox="0 0 12 12" fill="none" xmlns="http://www.w3.org/2000/svg">
<path opacity="0.5" fill-rule="evenodd" clip-rule="evenodd" d="M1.79955 3.61219C2.54098 3.61219 3.14204 3.00638 3.14204 2.25955C3.14204 1.51254 2.54098 0.907104 1.79955 0.907104C1.05822 0.907104 0.457153 1.51254 0.457153 2.25955C0.457153 3.00638 1.05822 3.61219 1.79955 3.61219ZM0.675441 11.9023H2.94544V4.57212H0.675441V11.9023ZM7.95724 6.41018C7.04875 6.41018 6.57403 7.02373 6.57403 8.05455V11.9023H4.39674V4.57212H6.57403V5.5594C6.57403 5.5594 7.22883 4.34829 8.78394 4.34829C10.3391 4.34829 11.4522 5.29758 11.4522 7.261V11.9023H9.19317V8.05455C9.19317 6.99908 8.79212 6.41018 7.95724 6.41018Z" fill="black"/>
</svg>
