<svg width="16" height="14" viewBox="0 0 16 14" fill="none" xmlns="http://www.w3.org/2000/svg">
<path opacity="0.5" fill-rule="evenodd" clip-rule="evenodd" d="M15.3638 13.866C15.1767 14.04 14.8737 14.04 14.6867 13.866L10.8527 10.2958C9.78294 11.1041 8.42091 11.5901 6.93585 11.5901C3.49888 11.5901 0.712646 8.99556 0.712646 5.79508C0.712646 2.59454 3.49888 3.05176e-05 6.93585 3.05176e-05C10.3728 3.05176e-05 13.1591 2.59454 13.1591 5.79508C13.1591 7.29154 12.5448 8.65109 11.5447 9.67925L15.3638 13.2354C15.5507 13.4097 15.5507 13.6919 15.3638 13.866ZM6.93585 0.891622C4.02756 0.891622 1.66998 3.08689 1.66998 5.79508C1.66998 8.50324 4.02756 10.6986 6.93585 10.6986C9.84405 10.6986 12.2016 8.50324 12.2016 5.79508C12.2016 3.08689 9.84405 0.891622 6.93585 0.891622Z" fill="black"/>
</svg>
