<svg width="15" height="20" viewBox="0 0 15 20" fill="none" xmlns="http://www.w3.org/2000/svg">
<path opacity="0.4" fill-rule="evenodd" clip-rule="evenodd" d="M6.54563 19.9998C6.18741 19.9998 5.89702 19.72 5.89702 19.3748C5.89702 19.0297 6.18741 18.75 6.54563 18.75H7.19407V17.4718C3.99229 17.1933 1.28154 14.8739 0.709106 11.8747H2.00615C2.59647 14.3789 5.0656 16.2497 7.84258 16.2497C10.6195 16.2497 13.0886 14.3789 13.6789 11.8747H14.976C14.4034 14.8739 11.6927 17.1933 8.49101 17.4718V18.75H9.13953C9.49765 18.75 9.78806 19.0297 9.78806 19.3748C9.78806 19.72 9.49765 19.9998 9.13953 19.9998H6.54563ZM7.84258 14.9999C5.33545 14.9999 3.3031 13.0411 3.3031 10.6249V4.37498C3.3031 1.95871 5.33545 -0.000244141 7.84258 -0.000244141C10.3495 -0.000244141 12.382 1.95871 12.382 4.37498V10.6249C12.382 13.0411 10.3495 14.9999 7.84258 14.9999ZM11.085 4.37498C11.085 2.64907 9.63328 1.24979 7.84258 1.24979C6.05178 1.24979 4.60007 2.64907 4.60007 4.37498V10.6249C4.60007 12.3508 6.05178 13.7498 7.84258 13.7498C9.63328 13.7498 11.085 12.3508 11.085 10.6249V4.37498Z" fill="black"/>
</svg>
